<?xml version="1.0" standalone="no"?>
<!DOCTYPE svg PUBLIC "-//W3C//DTD SVG 20010904//EN"
 "http://www.w3.org/TR/2001/REC-SVG-20010904/DTD/svg10.dtd">
<svg version="1.0" xmlns="http://www.w3.org/2000/svg"
 width="928.000000pt" height="1024.000000pt" viewBox="0 0 928.000000 1024.000000"
 preserveAspectRatio="xMidYMid meet">

<g transform="translate(0.000000,1024.000000) scale(0.100000,-0.100000)"
fill="#000000" stroke="none">
<path d="M4385 10230 c-444 -49 -834 -189 -1185 -425 -809 -545 -1254 -1495
-1144 -2445 86 -749 402 -1446 974 -2150 129 -159 478 -504 640 -634 180 -144
442 -318 565 -377 164 -79 233 -94 415 -93 142 0 162 2 240 28 104 34 206 87
374 195 252 161 454 327 706 580 365 367 641 748 875 1206 328 643 459 1356
359 1950 -87 516 -334 1008 -694 1379 -412 425 -905 678 -1500 771 -123 19
-504 28 -625 15z m-247 -695 c154 -46 222 -237 131 -369 -36 -53 -90 -84 -183
-106 -405 -94 -668 -331 -835 -752 -43 -108 -76 -247 -117 -486 -20 -114 -45
-228 -56 -255 -90 -209 -390 -187 -448 33 -27 101 3 367 71 620 182 683 662
1187 1247 1310 109 23 126 24 190 5z"/>
<path d="M7537 7653 c-29 -1074 -463 -2020 -1364 -2971 l-135 -142 53 -73
c323 -440 673 -760 1024 -935 150 -75 193 -87 310 -86 124 1 162 15 342 123
502 301 900 702 1156 1166 258 467 395 1054 347 1480 -50 431 -228 804 -527
1101 -273 272 -596 437 -1012 520 -96 19 -177 34 -181 34 -4 0 -10 -98 -13
-217z m444 -317 c46 -14 111 -37 144 -51 334 -149 616 -532 705 -958 43 -207
44 -339 3 -409 -64 -110 -229 -101 -289 15 -9 16 -25 94 -35 172 -23 174 -55
290 -114 412 -55 116 -112 200 -189 282 -105 111 -208 167 -409 225 -134 39
-186 161 -114 266 50 74 149 89 298 46z"/>
<path d="M1569 7845 c-384 -61 -734 -242 -1018 -526 -241 -241 -413 -537 -495
-853 -83 -318 -73 -700 29 -1071 127 -463 445 -986 845 -1386 204 -204 403
-353 630 -472 132 -70 203 -90 305 -90 99 0 171 20 295 84 349 179 677 473
994 891 l89 118 -109 112 c-722 747 -1165 1529 -1323 2338 -44 227 -62 398
-69 645 l-7 220 -40 2 c-22 1 -79 -5 -126 -12z m-39 -497 c107 -54 132 -184
52 -269 -32 -34 -51 -44 -142 -70 -248 -72 -414 -207 -529 -433 -72 -140 -133
-355 -146 -511 -8 -95 -30 -151 -74 -188 -40 -33 -69 -41 -128 -34 -122 13
-170 135 -138 352 89 596 402 995 898 1141 134 40 150 40 207 12z"/>
<path d="M4695 4019 c-22 -4 -76 -8 -120 -8 -112 -1 -146 -13 -194 -67 -55
-63 -146 -249 -167 -340 -53 -240 84 -364 369 -334 132 14 465 69 501 82 38
15 56 59 45 108 -30 131 -153 407 -213 477 -58 66 -142 98 -221 82z"/>
<path d="M1789 3395 c-74 -24 -143 -93 -190 -191 -100 -206 -43 -324 166 -349
51 -7 388 45 425 65 44 24 40 61 -21 183 -105 209 -147 274 -182 287 -54 19
-148 21 -198 5z"/>
<path d="M7400 3400 c-14 -4 -46 -8 -73 -9 -43 -1 -52 -5 -94 -48 -92 -96
-151 -213 -168 -334 -5 -40 -3 -51 17 -72 20 -22 41 -28 163 -46 216 -33 326
-42 367 -30 46 12 94 66 109 121 25 95 -25 246 -113 340 -41 44 -62 54 -173
83 -5 2 -21 -1 -35 -5z"/>
<path d="M4622 3172 c-9 -7 -2 -31 32 -104 96 -208 122 -327 97 -448 -19 -89
-52 -147 -166 -290 -60 -74 -122 -164 -139 -200 -29 -60 -31 -73 -31 -170 0
-105 0 -106 46 -200 26 -52 74 -144 108 -205 139 -249 136 -393 -16 -596 -99
-134 -138 -265 -130 -439 3 -58 13 -132 21 -165 24 -92 99 -233 156 -298 l52
-57 39 27 c21 16 39 32 39 37 0 6 -24 53 -54 105 -133 237 -164 407 -105 580
21 61 77 152 159 256 112 141 99 325 -40 580 -141 259 -155 292 -155 375 0 88
19 133 92 223 164 201 208 274 239 397 24 95 15 249 -21 360 -35 110 -77 193
-111 219 -27 21 -87 28 -112 13z"/>
<path d="M7390 2793 c-19 -8 -44 -22 -54 -31 -32 -28 -84 -149 -96 -224 -23
-137 6 -231 113 -364 93 -115 120 -176 120 -269 0 -85 -22 -145 -90 -253 -68
-105 -87 -161 -87 -247 0 -84 28 -154 98 -243 82 -104 109 -199 87 -303 -6
-30 -34 -102 -62 -161 -44 -94 -50 -113 -44 -148 12 -70 38 -54 108 67 114
195 117 354 10 543 -103 184 -105 190 -100 262 4 56 12 83 51 155 116 221 130
255 134 323 5 93 -21 155 -114 270 -115 145 -129 175 -129 290 1 91 3 100 53
219 29 69 52 126 52 128 0 6 -15 2 -50 -14z"/>
<path d="M1850 2778 c0 -6 18 -50 40 -97 54 -119 69 -207 47 -295 -19 -79 -48
-129 -121 -216 -31 -36 -70 -92 -88 -125 -27 -50 -32 -70 -31 -125 0 -78 21
-134 103 -274 115 -198 114 -305 -4 -456 -97 -123 -118 -224 -76 -361 20 -68
117 -319 126 -328 2 -2 22 8 43 22 45 30 46 22 -13 137 -49 94 -66 141 -76
210 -16 111 21 228 101 325 64 77 82 120 82 195 0 78 -25 144 -125 337 -60
117 -68 139 -68 188 0 69 13 96 105 210 82 101 108 149 130 232 27 102 18 183
-33 315 -35 90 -60 118 -107 118 -20 0 -35 -5 -35 -12z"/>
</g>
</svg>
