<?xml version="1.0" standalone="no"?>
<!DOCTYPE svg PUBLIC "-//W3C//DTD SVG 20010904//EN"
 "http://www.w3.org/TR/2001/REC-SVG-20010904/DTD/svg10.dtd">
<svg version="1.0" xmlns="http://www.w3.org/2000/svg"
 width="1054.000000pt" height="1107.000000pt" viewBox="0 0 1054.000000 1107.000000"
 preserveAspectRatio="xMidYMid meet">

<g transform="translate(0.000000,1107.000000) scale(0.100000,-0.100000)"
fill="#000000" stroke="none">
<path d="M1800 11051 c-21 -6 -26 -15 -32 -56 -15 -113 -29 -538 -26 -790 2
-235 1 -274 -14 -300 -32 -60 -85 -94 -178 -115 -182 -41 -348 -112 -458 -195
-195 -146 -302 -406 -302 -731 0 -156 -46 -237 -153 -269 -28 -8 -117 -20
-197 -26 -276 -19 -341 -44 -407 -156 l-26 -45 12 -105 c36 -307 147 -528 330
-652 113 -77 314 -166 556 -246 174 -57 243 -94 306 -163 58 -63 93 -128 114
-209 22 -83 19 -160 -12 -286 -36 -150 -38 -324 -6 -407 12 -30 36 -93 54
-140 32 -82 33 -90 33 -230 1 -142 0 -147 -37 -252 -20 -58 -37 -120 -37 -136
0 -39 28 -176 45 -214 10 -26 9 -39 -6 -90 -33 -105 -23 -234 28 -349 12 -26
28 -79 37 -119 9 -40 23 -85 32 -101 18 -35 62 -59 108 -59 51 0 69 -26 106
-153 75 -259 151 -437 231 -544 33 -44 53 -59 136 -98 139 -66 222 -134 399
-327 176 -191 241 -249 354 -313 88 -51 117 -85 165 -188 65 -141 118 -342
169 -637 40 -228 48 -262 99 -437 86 -289 102 -595 57 -1019 -25 -232 -72
-316 -195 -345 -174 -41 -247 -106 -310 -274 -32 -83 -28 -123 15 -159 36 -30
48 -32 235 -51 243 -24 305 -19 414 32 72 34 160 122 193 193 44 95 140 517
213 939 24 142 53 283 65 313 31 83 100 140 190 154 42 7 42 7 36 43 -3 20 -9
77 -13 127 -5 86 -5 92 14 98 43 14 55 41 58 128 4 102 34 219 73 284 65 106
80 225 49 381 -26 128 -8 168 113 248 88 58 154 84 365 144 99 28 203 63 232
77 51 24 100 72 138 135 30 48 79 62 191 54 l92 -6 58 67 c73 82 119 114 220
154 102 41 203 95 394 215 194 121 342 193 490 239 200 62 268 71 520 71 253
0 329 -10 408 -56 64 -36 77 -55 257 -384 286 -523 386 -661 772 -1071 156
-166 427 -421 710 -667 110 -97 234 -213 274 -257 258 -284 387 -556 434 -913
35 -275 15 -328 -155 -393 -103 -39 -145 -94 -138 -180 13 -150 240 -266 441
-224 138 28 292 142 351 259 34 67 56 165 56 257 0 128 -191 1202 -251 1409
-68 235 -91 295 -110 295 -24 0 -24 6 6 55 30 48 31 54 8 49 -14 -3 -34 24
-88 122 -106 191 -107 196 -99 334 9 149 -9 213 -96 350 -33 52 -66 112 -72
133 -10 33 -8 42 15 86 15 27 31 72 37 100 13 72 -5 496 -30 701 -26 205 -28
407 -5 510 34 159 38 188 38 300 -1 176 -39 311 -210 735 -156 388 -165 413
-166 490 -2 66 2 78 54 190 103 220 149 409 134 559 -16 167 -106 584 -144
672 -50 112 -159 232 -351 385 -58 46 -140 115 -183 153 -128 116 -187 152
-322 196 -240 78 -816 220 -892 220 -25 0 -89 -12 -142 -26 -86 -24 -102 -26
-152 -15 -141 28 -261 7 -394 -72 -112 -66 -295 -188 -295 -197 0 -26 -143
-193 -323 -377 -114 -116 -207 -213 -207 -217 0 -3 25 -22 55 -42 l55 -35 -57
-73 c-32 -41 -80 -102 -106 -135 -27 -34 -45 -61 -42 -61 4 0 45 12 92 26 46
14 87 24 89 21 3 -3 -20 -24 -52 -48 -187 -144 -214 -179 -214 -284 l0 -58
-217 7 c-245 8 -316 18 -488 71 -104 32 -137 38 -247 42 l-127 6 2 63 c2 54
-2 67 -21 86 -22 22 -28 23 -240 24 -225 1 -328 13 -397 43 -22 10 -92 60
-155 111 -273 219 -375 357 -410 551 -10 52 -25 83 -88 179 -97 147 -126 204
-125 243 0 18 2 62 3 98 2 72 -13 112 -69 183 -36 46 -37 54 -11 103 23 44 25
83 6 121 -12 23 -178 181 -354 337 l-44 39 88 44 87 44 -91 38 c-99 42 -211
110 -282 172 -75 66 -137 146 -238 308 -126 201 -296 437 -567 790 -121 157
-236 307 -255 333 -36 48 -39 49 -80 38z m6775 -4041 c69 -33 145 -113 183
-190 34 -70 53 -170 33 -170 -9 0 -522 126 -653 161 l-38 10 16 37 c28 68 101
131 187 163 75 28 204 23 272 -11z"/>
</g>
</svg>
