<?xml version="1.0" standalone="no"?>
<!DOCTYPE svg PUBLIC "-//W3C//DTD SVG 20010904//EN"
 "http://www.w3.org/TR/2001/REC-SVG-20010904/DTD/svg10.dtd">
<svg version="1.0" xmlns="http://www.w3.org/2000/svg"
 width="396.000000pt" height="430.000000pt" viewBox="0 0 396.000000 430.000000"
 preserveAspectRatio="xMidYMid meet">

<g transform="translate(0.000000,430.000000) scale(0.100000,-0.100000)"
fill="#000000" stroke="none">
<path d="M1277 4278 c-27 -27 -27 -27 -50 -250 -12 -119 -12 -157 0 -275 23
-224 23 -224 50 -251 23 -23 29 -24 96 -19 162 14 318 82 461 199 27 23 28 26
16 60 l-13 35 -60 -24 c-68 -28 -190 -53 -245 -52 -25 0 -3 8 68 24 114 25
182 47 217 71 21 13 23 22 23 94 0 70 -2 81 -22 94 -30 21 -93 41 -218 70 -75
18 -94 25 -67 25 54 1 183 -27 247 -54 l55 -23 12 30 c7 17 13 34 13 38 0 3
-34 32 -75 63 -128 95 -268 151 -412 164 -67 5 -73 4 -96 -19z"/>
<path d="M2516 4284 c-137 -30 -278 -99 -374 -183 l-34 -29 12 -57 c11 -55 12
-56 33 -42 104 67 220 108 302 106 27 -1 27 -2 -10 -11 -101 -24 -199 -63
-254 -98 -58 -37 -61 -42 -61 -79 0 -36 4 -43 45 -71 63 -43 125 -70 225 -96
64 -17 76 -23 50 -23 -79 -2 -194 38 -287 99 l-31 21 -12 -58 c-12 -57 -12
-57 16 -81 154 -128 412 -224 524 -195 57 15 60 27 86 336 12 132 -22 433 -50
457 -23 18 -107 20 -180 4z"/>
<path d="M980 4181 c-168 -55 -333 -145 -483 -263 -196 -154 -387 -410 -477
-638 l-20 -50 76 -56 c41 -31 138 -98 215 -151 76 -52 139 -97 139 -101 0 -4
-58 -65 -130 -137 l-129 -130 276 -400 c407 -591 1175 -1714 1366 -1998 92
-136 167 -244 167 -241 0 4 -27 115 -60 248 -81 326 -167 628 -390 1366 -322
1065 -410 1404 -456 1753 -24 181 -11 662 21 805 7 29 -8 28 -115 -7z"/>
<path d="M2874 4179 c34 -193 44 -573 22 -764 -40 -342 -135 -713 -441 -1725
-185 -611 -242 -805 -316 -1075 -69 -250 -152 -586 -146 -591 2 -2 75 103 162
233 177 265 706 1040 1250 1830 198 287 367 533 375 547 15 25 14 27 -117 158
l-132 133 102 69 c222 150 327 229 327 246 0 9 -25 67 -55 128 -154 314 -379
550 -678 711 -97 51 -256 114 -320 126 l-38 7 5 -33z"/>
<path d="M1905 4068 c-41 -22 -45 -37 -45 -180 0 -170 1 -170 113 -193 29 -6
88 15 113 40 23 23 24 31 24 150 0 70 -5 135 -10 146 -6 10 -24 26 -40 34 -34
17 -126 19 -155 3z"/>
<path d="M1933 3210 c-39 -23 -53 -48 -53 -93 0 -72 76 -121 143 -93 37 15 67
59 67 96 0 34 -28 78 -60 95 -38 20 -58 19 -97 -5z"/>
<path d="M1944 2446 c-67 -29 -85 -109 -38 -165 48 -57 135 -47 169 19 29 56
9 116 -49 144 -40 19 -42 19 -82 2z"/>
<path d="M1911 1649 c-68 -68 -19 -179 79 -179 44 0 100 56 100 100 0 98 -111
147 -179 79z"/>
</g>
</svg>
